<svg width="250" height="22" viewBox="0 0 250 22" fill="none" xmlns="http://www.w3.org/2000/svg">
<path d="M14.2727 7.21875C14.1335 6.73485 13.938 6.30729 13.6861 5.93608C13.4342 5.55824 13.1259 5.24006 12.7614 4.98153C12.4034 4.71638 11.9924 4.5142 11.5284 4.375C11.071 4.2358 10.5639 4.16619 10.0071 4.16619C8.96638 4.16619 8.05161 4.42472 7.26278 4.94176C6.48059 5.45881 5.87074 6.21117 5.43324 7.19886C4.99574 8.17992 4.77699 9.37973 4.77699 10.7983C4.77699 12.2169 4.99242 13.4233 5.4233 14.4176C5.85417 15.4119 6.46402 16.1709 7.25284 16.6946C8.04167 17.2116 8.97301 17.4702 10.0469 17.4702C11.0213 17.4702 11.8532 17.2978 12.5426 16.9531C13.2386 16.6018 13.7689 16.108 14.1335 15.4716C14.5047 14.8352 14.6903 14.0829 14.6903 13.2145L15.5653 13.3438H10.3153V10.1023H18.8366V12.6676C18.8366 14.4574 18.4588 15.9953 17.7031 17.2812C16.9474 18.5606 15.9067 19.5483 14.581 20.2443C13.2552 20.9337 11.7372 21.2784 10.027 21.2784C8.1179 21.2784 6.44081 20.8575 4.99574 20.0156C3.55066 19.1671 2.42377 17.964 1.61506 16.4062C0.812974 14.8419 0.411932 12.9858 0.411932 10.8381C0.411932 9.1875 0.650568 7.71591 1.12784 6.42329C1.61174 5.12405 2.28788 4.02367 3.15625 3.12216C4.02462 2.22064 5.03551 1.53456 6.18892 1.06392C7.34233 0.593276 8.59186 0.357954 9.9375 0.357954C11.0909 0.357954 12.1648 0.526988 13.1591 0.865057C14.1534 1.1965 15.035 1.66714 15.804 2.27699C16.5795 2.88684 17.2126 3.61269 17.7031 4.45454C18.1937 5.28977 18.5085 6.21117 18.6477 7.21875H14.2727ZM29.2894 21H22.0707V0.636363H29.3491C31.3974 0.636363 33.1606 1.04403 34.6388 1.85938C36.1171 2.66809 37.2539 3.83144 38.0494 5.34943C38.8514 6.86742 39.2525 8.68371 39.2525 10.7983C39.2525 12.9195 38.8514 14.7424 38.0494 16.267C37.2539 17.7917 36.1104 18.9616 34.619 19.777C33.1341 20.5923 31.3576 21 29.2894 21ZM26.3761 17.3111H29.1104C30.3832 17.3111 31.4537 17.0857 32.3221 16.6349C33.1971 16.1776 33.8533 15.4716 34.2908 14.517C34.735 13.5559 34.957 12.3163 34.957 10.7983C34.957 9.29356 34.735 8.06392 34.2908 7.10938C33.8533 6.15483 33.2004 5.45218 32.332 5.00142C31.4637 4.55066 30.3931 4.32528 29.1204 4.32528H26.3761V17.3111ZM55.9446 7.21875C55.8054 6.73485 55.6098 6.30729 55.358 5.93608C55.1061 5.55824 54.7978 5.24006 54.4332 4.98153C54.0753 4.71638 53.6643 4.5142 53.2003 4.375C52.7429 4.2358 52.2358 4.16619 51.679 4.16619C50.6383 4.16619 49.7235 4.42472 48.9347 4.94176C48.1525 5.45881 47.5426 6.21117 47.1051 7.19886C46.6676 8.17992 46.4489 9.37973 46.4489 10.7983C46.4489 12.2169 46.6643 13.4233 47.0952 14.4176C47.526 15.4119 48.1359 16.1709 48.9247 16.6946C49.7135 17.2116 50.6449 17.4702 51.7188 17.4702C52.6932 17.4702 53.5251 17.2978 54.2145 16.9531C54.9105 16.6018 55.4408 16.108 55.8054 15.4716C56.1766 14.8352 56.3622 14.0829 56.3622 13.2145L57.2372 13.3438H51.9872V10.1023H60.5085V12.6676C60.5085 14.4574 60.1307 15.9953 59.375 17.2812C58.6193 18.5606 57.5786 19.5483 56.2528 20.2443C54.9271 20.9337 53.4091 21.2784 51.6989 21.2784C49.7898 21.2784 48.1127 20.8575 46.6676 20.0156C45.2225 19.1671 44.0956 17.964 43.2869 16.4062C42.4848 14.8419 42.0838 12.9858 42.0838 10.8381C42.0838 9.1875 42.3224 7.71591 42.7997 6.42329C43.2836 5.12405 43.9598 4.02367 44.8281 3.12216C45.6965 2.22064 46.7074 1.53456 47.8608 1.06392C49.0142 0.593276 50.2637 0.357954 51.6094 0.357954C52.7628 0.357954 53.8366 0.526988 54.831 0.865057C55.8253 1.1965 56.7069 1.66714 57.4759 2.27699C58.2514 2.88684 58.8845 3.61269 59.375 4.45454C59.8655 5.28977 60.1804 6.21117 60.3196 7.21875H55.9446ZM88.1903 7.76562H83.8352C83.7557 7.20218 83.5933 6.7017 83.348 6.2642C83.1027 5.82007 82.7879 5.44223 82.4034 5.13068C82.0189 4.81913 81.5748 4.58049 81.071 4.41477C80.5739 4.24905 80.0336 4.16619 79.4503 4.16619C78.3963 4.16619 77.4782 4.42803 76.696 4.9517C75.9138 5.46875 75.3073 6.22443 74.8764 7.21875C74.4455 8.20644 74.2301 9.40625 74.2301 10.8182C74.2301 12.2699 74.4455 13.4896 74.8764 14.4773C75.3139 15.465 75.9238 16.2107 76.706 16.7145C77.4882 17.2183 78.393 17.4702 79.4205 17.4702C79.9972 17.4702 80.5308 17.3939 81.0213 17.2415C81.5185 17.089 81.9593 16.867 82.3438 16.5753C82.7282 16.277 83.0464 15.9157 83.2983 15.4915C83.5568 15.0672 83.7358 14.5833 83.8352 14.0398L88.1903 14.0597C88.0777 14.9943 87.7959 15.8958 87.3452 16.7642C86.901 17.6259 86.3011 18.3982 85.5455 19.081C84.7964 19.7571 83.9015 20.294 82.8608 20.6918C81.8267 21.0829 80.6567 21.2784 79.3509 21.2784C77.5346 21.2784 75.9105 20.8674 74.4787 20.0455C73.0535 19.2235 71.9266 18.0336 71.098 16.4759C70.276 14.9181 69.8651 13.0322 69.8651 10.8182C69.8651 8.59754 70.2827 6.70833 71.1179 5.15057C71.9531 3.5928 73.0866 2.40625 74.5185 1.59091C75.9503 0.768939 77.5611 0.357954 79.3509 0.357954C80.5308 0.357954 81.6245 0.523674 82.6321 0.855113C83.6463 1.18655 84.5445 1.67045 85.3267 2.30682C86.1089 2.93655 86.7453 3.70881 87.2358 4.62358C87.733 5.53835 88.0511 6.5857 88.1903 7.76562ZM109.991 10.8182C109.991 13.0388 109.57 14.928 108.728 16.4858C107.893 18.0436 106.753 19.2334 105.308 20.0554C103.869 20.8707 102.252 21.2784 100.455 21.2784C98.6456 21.2784 97.0215 20.8674 95.5831 20.0455C94.1446 19.2235 93.0078 18.0336 92.1726 16.4759C91.3374 14.9181 90.9197 13.0322 90.9197 10.8182C90.9197 8.59754 91.3374 6.70833 92.1726 5.15057C93.0078 3.5928 94.1446 2.40625 95.5831 1.59091C97.0215 0.768939 98.6456 0.357954 100.455 0.357954C102.252 0.357954 103.869 0.768939 105.308 1.59091C106.753 2.40625 107.893 3.5928 108.728 5.15057C109.57 6.70833 109.991 8.59754 109.991 10.8182ZM105.626 10.8182C105.626 9.37973 105.41 8.16667 104.979 7.17898C104.555 6.19129 103.955 5.44224 103.18 4.93182C102.404 4.4214 101.496 4.16619 100.455 4.16619C99.4145 4.16619 98.5064 4.4214 97.7308 4.93182C96.9553 5.44224 96.352 6.19129 95.9212 7.17898C95.4969 8.16667 95.2848 9.37973 95.2848 10.8182C95.2848 12.2566 95.4969 13.4697 95.9212 14.4574C96.352 15.4451 96.9553 16.1941 97.7308 16.7045C98.5064 17.215 99.4145 17.4702 100.455 17.4702C101.496 17.4702 102.404 17.215 103.18 16.7045C103.955 16.1941 104.555 15.4451 104.979 14.4574C105.41 13.4697 105.626 12.2566 105.626 10.8182ZM113.18 0.636363H118.49L124.098 14.3182H124.336L129.944 0.636363H135.254V21H131.078V7.74574H130.909L125.639 20.9006H122.795L117.525 7.69602H117.356V21H113.18V0.636363ZM138.801 0.636363H144.111L149.719 14.3182H149.957L155.565 0.636363H160.875V21H156.699V7.74574H156.53L151.26 20.9006H148.416L143.146 7.69602H142.977V21H138.801V0.636363ZM177 0.636363H181.306V13.8608C181.306 15.3456 180.951 16.6449 180.242 17.7585C179.539 18.8722 178.555 19.7405 177.289 20.3636C176.023 20.9801 174.548 21.2884 172.864 21.2884C171.174 21.2884 169.695 20.9801 168.429 20.3636C167.163 19.7405 166.179 18.8722 165.476 17.7585C164.774 16.6449 164.422 15.3456 164.422 13.8608V0.636363H168.728V13.4929C168.728 14.2685 168.897 14.9579 169.235 15.5611C169.579 16.1643 170.063 16.6383 170.686 16.983C171.31 17.3277 172.035 17.5 172.864 17.5C173.699 17.5 174.425 17.3277 175.042 16.983C175.665 16.6383 176.145 16.1643 176.483 15.5611C176.828 14.9579 177 14.2685 177 13.4929V0.636363ZM201.881 0.636363V21H198.162L189.303 8.18324H189.153V21H184.848V0.636363H188.626L197.416 13.4432H197.595V0.636363H201.881ZM209.743 0.636363V21H205.438V0.636363H209.743ZM212.51 4.18608V0.636363H229.234V4.18608H223V21H218.744V4.18608H212.51ZM230.795 0.636363H235.618L240.261 9.40625H240.46L245.104 0.636363H249.926L242.499 13.8011V21H238.223V13.8011L230.795 0.636363Z" fill="white"/>
</svg>
