<svg width="120" height="110" viewBox="0 0 120 110" fill="none" xmlns="http://www.w3.org/2000/svg">
<rect width="120" height="109.916" rx="54.958" fill="#EADDFF"/>
<path fill-rule="evenodd" clip-rule="evenodd" d="M78.0007 43.9664C78.0007 53.0721 69.9419 60.4538 60.0007 60.4538C50.0596 60.4538 42.0007 53.0721 42.0007 43.9664C42.0007 34.8607 50.0596 27.479 60.0007 27.479C69.9419 27.479 78.0007 34.8607 78.0007 43.9664ZM72.0007 43.9664C72.0007 50.0369 66.6282 54.958 60.0007 54.958C53.3733 54.958 48.0007 50.0369 48.0007 43.9664C48.0007 37.8959 53.3733 32.9748 60.0007 32.9748C66.6282 32.9748 72.0007 37.8959 72.0007 43.9664Z" fill="#4F378A"/>
<path d="M60.0007 68.6975C40.5776 68.6975 24.0286 79.2176 17.7246 93.9563C19.2603 95.3531 20.878 96.6743 22.5706 97.9133C27.2648 84.3817 41.9909 74.1933 60.0007 74.1933C78.0106 74.1933 92.7367 84.3817 97.4309 97.9134C99.1235 96.6743 100.741 95.3531 102.277 93.9563C95.973 79.2176 79.4239 68.6975 60.0007 68.6975Z" fill="#4F378A"/>
</svg>
