<svg width="222" height="62" viewBox="0 0 222 62" fill="none" xmlns="http://www.w3.org/2000/svg">
<rect width="222" height="62" rx="20" fill="#E8E9FF"/>
<mask id="path-2-outside-1_135_96" maskUnits="userSpaceOnUse" x="68" y="19" width="126" height="24" fill="black">
<rect fill="white" x="68" y="19" width="126" height="24"/>
<path d="M69.7699 20.6364H75.0795L80.6875 34.3182H80.9261L86.5341 20.6364H91.8438V41H87.6676V27.7457H87.4986L82.2287 40.9006H79.3849L74.1151 27.696H73.946V41H69.7699V20.6364ZM94.1978 20.6364H99.0202L103.664 29.4062H103.863L108.506 20.6364H113.328L105.901 33.8011V41H101.625V33.8011L94.1978 20.6364ZM122.161 41V20.6364H130.195C131.739 20.6364 133.055 20.9313 134.142 21.5213C135.229 22.1046 136.058 22.9167 136.628 23.9574C137.205 24.9915 137.493 26.1847 137.493 27.5369C137.493 28.8892 137.201 30.0824 136.618 31.1165C136.035 32.1506 135.189 32.956 134.082 33.5327C132.982 34.1094 131.65 34.3977 130.085 34.3977H124.964V30.9474H129.389C130.218 30.9474 130.901 30.8049 131.438 30.5199C131.981 30.2282 132.385 29.8272 132.651 29.3168C132.922 28.7997 133.058 28.2064 133.058 27.5369C133.058 26.8608 132.922 26.2708 132.651 25.767C132.385 25.2566 131.981 24.8622 131.438 24.5838C130.894 24.2988 130.205 24.1562 129.369 24.1562H126.466V41H122.161ZM141.448 41H136.834L143.864 20.6364H149.412L156.432 41H151.819L146.718 25.2898H146.559L141.448 41ZM141.159 32.9957H152.057V36.3565H141.159V32.9957ZM171.429 27.2188C171.29 26.7348 171.094 26.3073 170.842 25.9361C170.59 25.5582 170.282 25.2401 169.918 24.9815C169.56 24.7164 169.149 24.5142 168.685 24.375C168.227 24.2358 167.72 24.1662 167.163 24.1662C166.123 24.1662 165.208 24.4247 164.419 24.9418C163.637 25.4588 163.027 26.2112 162.589 27.1989C162.152 28.1799 161.933 29.3797 161.933 30.7983C161.933 32.2169 162.149 33.4233 162.58 34.4176C163.01 35.4119 163.62 36.1709 164.409 36.6946C165.198 37.2116 166.129 37.4702 167.203 37.4702C168.178 37.4702 169.009 37.2978 169.699 36.9531C170.395 36.6018 170.925 36.108 171.29 35.4716C171.661 34.8352 171.847 34.0829 171.847 33.2145L172.722 33.3438H167.472V30.1023H175.993V32.6676C175.993 34.4574 175.615 35.9953 174.859 37.2812C174.104 38.5606 173.063 39.5483 171.737 40.2443C170.411 40.9337 168.893 41.2784 167.183 41.2784C165.274 41.2784 163.597 40.8575 162.152 40.0156C160.707 39.1671 159.58 37.964 158.771 36.4062C157.969 34.8419 157.568 32.9858 157.568 30.8381C157.568 29.1875 157.807 27.7159 158.284 26.4233C158.768 25.1241 159.444 24.0237 160.312 23.1222C161.181 22.2206 162.192 21.5346 163.345 21.0639C164.499 20.5933 165.748 20.358 167.094 20.358C168.247 20.358 169.321 20.527 170.315 20.8651C171.31 21.1965 172.191 21.6671 172.96 22.277C173.736 22.8868 174.369 23.6127 174.859 24.4545C175.35 25.2898 175.665 26.2112 175.804 27.2188H171.429ZM179.227 41V20.6364H192.949V24.1861H183.532V29.0384H192.243V32.5881H183.532V37.4503H192.988V41H179.227Z"/>
</mask>
<path d="M69.7699 20.6364H75.0795L80.6875 34.3182H80.9261L86.5341 20.6364H91.8438V41H87.6676V27.7457H87.4986L82.2287 40.9006H79.3849L74.1151 27.696H73.946V41H69.7699V20.6364ZM94.1978 20.6364H99.0202L103.664 29.4062H103.863L108.506 20.6364H113.328L105.901 33.8011V41H101.625V33.8011L94.1978 20.6364ZM122.161 41V20.6364H130.195C131.739 20.6364 133.055 20.9313 134.142 21.5213C135.229 22.1046 136.058 22.9167 136.628 23.9574C137.205 24.9915 137.493 26.1847 137.493 27.5369C137.493 28.8892 137.201 30.0824 136.618 31.1165C136.035 32.1506 135.189 32.956 134.082 33.5327C132.982 34.1094 131.65 34.3977 130.085 34.3977H124.964V30.9474H129.389C130.218 30.9474 130.901 30.8049 131.438 30.5199C131.981 30.2282 132.385 29.8272 132.651 29.3168C132.922 28.7997 133.058 28.2064 133.058 27.5369C133.058 26.8608 132.922 26.2708 132.651 25.767C132.385 25.2566 131.981 24.8622 131.438 24.5838C130.894 24.2988 130.205 24.1562 129.369 24.1562H126.466V41H122.161ZM141.448 41H136.834L143.864 20.6364H149.412L156.432 41H151.819L146.718 25.2898H146.559L141.448 41ZM141.159 32.9957H152.057V36.3565H141.159V32.9957ZM171.429 27.2188C171.29 26.7348 171.094 26.3073 170.842 25.9361C170.59 25.5582 170.282 25.2401 169.918 24.9815C169.56 24.7164 169.149 24.5142 168.685 24.375C168.227 24.2358 167.72 24.1662 167.163 24.1662C166.123 24.1662 165.208 24.4247 164.419 24.9418C163.637 25.4588 163.027 26.2112 162.589 27.1989C162.152 28.1799 161.933 29.3797 161.933 30.7983C161.933 32.2169 162.149 33.4233 162.58 34.4176C163.01 35.4119 163.62 36.1709 164.409 36.6946C165.198 37.2116 166.129 37.4702 167.203 37.4702C168.178 37.4702 169.009 37.2978 169.699 36.9531C170.395 36.6018 170.925 36.108 171.29 35.4716C171.661 34.8352 171.847 34.0829 171.847 33.2145L172.722 33.3438H167.472V30.1023H175.993V32.6676C175.993 34.4574 175.615 35.9953 174.859 37.2812C174.104 38.5606 173.063 39.5483 171.737 40.2443C170.411 40.9337 168.893 41.2784 167.183 41.2784C165.274 41.2784 163.597 40.8575 162.152 40.0156C160.707 39.1671 159.58 37.964 158.771 36.4062C157.969 34.8419 157.568 32.9858 157.568 30.8381C157.568 29.1875 157.807 27.7159 158.284 26.4233C158.768 25.1241 159.444 24.0237 160.312 23.1222C161.181 22.2206 162.192 21.5346 163.345 21.0639C164.499 20.5933 165.748 20.358 167.094 20.358C168.247 20.358 169.321 20.527 170.315 20.8651C171.31 21.1965 172.191 21.6671 172.96 22.277C173.736 22.8868 174.369 23.6127 174.859 24.4545C175.35 25.2898 175.665 26.2112 175.804 27.2188H171.429ZM179.227 41V20.6364H192.949V24.1861H183.532V29.0384H192.243V32.5881H183.532V37.4503H192.988V41H179.227Z" fill="white"/>
<path d="M69.7699 20.6364V19.6364H68.7699V20.6364H69.7699ZM75.0795 20.6364L76.0048 20.2571L75.7504 19.6364H75.0795V20.6364ZM80.6875 34.3182L79.7622 34.6974L80.0166 35.3182H80.6875V34.3182ZM80.9261 34.3182V35.3182H81.597L81.8514 34.6974L80.9261 34.3182ZM86.5341 20.6364V19.6364H85.8632L85.6088 20.2571L86.5341 20.6364ZM91.8438 20.6364H92.8438V19.6364H91.8438V20.6364ZM91.8438 41V42H92.8438V41H91.8438ZM87.6676 41H86.6676V42H87.6676V41ZM87.6676 27.7457H88.6676V26.7457H87.6676V27.7457ZM87.4986 27.7457V26.7457H86.8219L86.5703 27.3739L87.4986 27.7457ZM82.2287 40.9006V41.9006H82.9053L83.157 41.2724L82.2287 40.9006ZM79.3849 40.9006L78.4562 41.2712L78.7073 41.9006H79.3849V40.9006ZM74.1151 27.696L75.0438 27.3254L74.7927 26.696H74.1151V27.696ZM73.946 27.696V26.696H72.946V27.696H73.946ZM73.946 41V42H74.946V41H73.946ZM69.7699 41H68.7699V42H69.7699V41ZM69.7699 21.6364H75.0795V19.6364H69.7699V21.6364ZM74.1543 21.0156L79.7622 34.6974L81.6128 33.9389L76.0048 20.2571L74.1543 21.0156ZM80.6875 35.3182H80.9261V33.3182H80.6875V35.3182ZM81.8514 34.6974L87.4594 21.0156L85.6088 20.2571L80.0008 33.9389L81.8514 34.6974ZM86.5341 21.6364H91.8438V19.6364H86.5341V21.6364ZM90.8438 20.6364V41H92.8438V20.6364H90.8438ZM91.8438 40H87.6676V42H91.8438V40ZM88.6676 41V27.7457H86.6676V41H88.6676ZM87.6676 26.7457H87.4986V28.7457H87.6676V26.7457ZM86.5703 27.3739L81.3004 40.5287L83.157 41.2724L88.4269 28.1176L86.5703 27.3739ZM82.2287 39.9006H79.3849V41.9006H82.2287V39.9006ZM80.3137 40.5299L75.0438 27.3254L73.1863 28.0667L78.4562 41.2712L80.3137 40.5299ZM74.1151 26.696H73.946V28.696H74.1151V26.696ZM72.946 27.696V41H74.946V27.696H72.946ZM73.946 40H69.7699V42H73.946V40ZM70.7699 41V20.6364H68.7699V41H70.7699ZM94.1978 20.6364V19.6364H92.4854L93.3269 21.1277L94.1978 20.6364ZM99.0202 20.6364L99.904 20.1684L99.6223 19.6364H99.0202V20.6364ZM103.664 29.4062L102.78 29.8742L103.062 30.4062H103.664V29.4062ZM103.863 29.4062V30.4062H104.465L104.746 29.8742L103.863 29.4062ZM108.506 20.6364V19.6364H107.904L107.622 20.1684L108.506 20.6364ZM113.328 20.6364L114.199 21.1277L115.041 19.6364H113.328V20.6364ZM105.901 33.8011L105.03 33.3098L104.901 33.5385V33.8011H105.901ZM105.901 41V42H106.901V41H105.901ZM101.625 41H100.625V42H101.625V41ZM101.625 33.8011H102.625V33.5385L102.496 33.3098L101.625 33.8011ZM94.1978 21.6364H99.0202V19.6364H94.1978V21.6364ZM98.1365 21.1043L102.78 29.8742L104.547 28.9383L99.904 20.1684L98.1365 21.1043ZM103.664 30.4062H103.863V28.4062H103.664V30.4062ZM104.746 29.8742L109.39 21.1043L107.622 20.1684L102.979 28.9383L104.746 29.8742ZM108.506 21.6364H113.328V19.6364H108.506V21.6364ZM112.458 20.145L105.03 33.3098L106.772 34.2925L114.199 21.1277L112.458 20.145ZM104.901 33.8011V41H106.901V33.8011H104.901ZM105.901 40H101.625V42H105.901V40ZM102.625 41V33.8011H100.625V41H102.625ZM102.496 33.3098L95.0687 20.145L93.3269 21.1277L100.754 34.2925L102.496 33.3098ZM122.161 41H121.161V42H122.161V41ZM122.161 20.6364V19.6364H121.161V20.6364H122.161ZM134.142 21.5213L133.665 22.4002L133.669 22.4025L134.142 21.5213ZM136.628 23.9574L135.751 24.4378L135.754 24.4445L136.628 23.9574ZM136.618 31.1165L135.747 30.6252L136.618 31.1165ZM134.082 33.5327L133.62 32.6458L133.618 32.6469L134.082 33.5327ZM124.964 34.3977H123.964V35.3977H124.964V34.3977ZM124.964 30.9474V29.9474H123.964V30.9474H124.964ZM131.438 30.5199L131.906 31.4032L131.91 31.401L131.438 30.5199ZM132.651 29.3168L131.765 28.8515L131.763 28.8558L132.651 29.3168ZM132.651 25.767L131.763 26.228L131.767 26.235L131.77 26.2418L132.651 25.767ZM131.438 24.5838L130.973 25.4695L130.982 25.4739L131.438 24.5838ZM126.466 24.1562V23.1562H125.466V24.1562H126.466ZM126.466 41V42H127.466V41H126.466ZM123.161 41V20.6364H121.161V41H123.161ZM122.161 21.6364H130.195V19.6364H122.161V21.6364ZM130.195 21.6364C131.613 21.6364 132.756 21.9071 133.665 22.4002L134.619 20.6424C133.353 19.9556 131.865 19.6364 130.195 19.6364V21.6364ZM133.669 22.4025C134.593 22.898 135.278 23.574 135.751 24.4378L137.505 23.477C136.838 22.2594 135.866 21.3112 134.615 20.6401L133.669 22.4025ZM135.754 24.4445C136.237 25.3096 136.493 26.3306 136.493 27.5369H138.493C138.493 26.0387 138.172 24.6734 137.501 23.4703L135.754 24.4445ZM136.493 27.5369C136.493 28.7413 136.234 29.7608 135.747 30.6252L137.489 31.6078C138.168 30.404 138.493 29.0371 138.493 27.5369H136.493ZM135.747 30.6252C135.264 31.4817 134.565 32.1537 133.62 32.6458L134.544 34.4195C135.814 33.7582 136.805 32.8194 137.489 31.6078L135.747 30.6252ZM133.618 32.6469C132.693 33.1316 131.529 33.3977 130.085 33.3977V35.3977C131.77 35.3977 133.271 35.0871 134.547 34.4184L133.618 32.6469ZM130.085 33.3977H124.964V35.3977H130.085V33.3977ZM125.964 34.3977V30.9474H123.964V34.3977H125.964ZM124.964 31.9474H129.389V29.9474H124.964V31.9474ZM129.389 31.9474C130.325 31.9474 131.182 31.7876 131.906 31.4031L130.969 29.6366C130.619 29.8223 130.111 29.9474 129.389 29.9474V31.9474ZM131.91 31.401C132.618 31.0215 133.173 30.4799 133.538 29.7778L131.763 28.8558C131.598 29.1745 131.344 29.435 130.965 29.6387L131.91 31.401ZM133.536 29.782C133.893 29.1018 134.058 28.3447 134.058 27.5369H132.058C132.058 28.0682 131.951 28.4977 131.765 28.8515L133.536 29.782ZM134.058 27.5369C134.058 26.7251 133.894 25.9663 133.531 25.2923L131.77 26.2418C131.95 26.5754 132.058 26.9965 132.058 27.5369H134.058ZM133.538 25.3061C133.171 24.5996 132.61 24.0607 131.893 23.6938L130.982 25.4739C131.352 25.6637 131.6 25.9137 131.763 26.228L133.538 25.3061ZM131.902 23.6982C131.173 23.3159 130.311 23.1562 129.369 23.1562V25.1562C130.098 25.1562 130.615 25.2817 130.973 25.4694L131.902 23.6982ZM129.369 23.1562H126.466V25.1562H129.369V23.1562ZM125.466 24.1562V41H127.466V24.1562H125.466ZM126.466 40H122.161V42H126.466V40ZM141.448 41V42H142.174L142.399 41.3094L141.448 41ZM136.834 41L135.889 40.6737L135.431 42H136.834V41ZM143.864 20.6364V19.6364H143.151L142.919 20.31L143.864 20.6364ZM149.412 20.6364L150.358 20.3105L150.125 19.6364H149.412V20.6364ZM156.432 41V42H157.835L157.378 40.6741L156.432 41ZM151.819 41L150.867 41.3088L151.092 42H151.819V41ZM146.718 25.2898L147.669 24.981L147.444 24.2898H146.718V25.2898ZM146.559 25.2898V24.2898H145.832L145.608 24.9804L146.559 25.2898ZM141.159 32.9957V31.9957H140.159V32.9957H141.159ZM152.057 32.9957H153.057V31.9957H152.057V32.9957ZM152.057 36.3565V37.3565H153.057V36.3565H152.057ZM141.159 36.3565H140.159V37.3565H141.159V36.3565ZM141.448 40H136.834V42H141.448V40ZM137.779 41.3263L144.809 20.9627L142.919 20.31L135.889 40.6737L137.779 41.3263ZM143.864 21.6364H149.412V19.6364H143.864V21.6364ZM148.467 20.9623L155.487 41.3259L157.378 40.6741L150.358 20.3105L148.467 20.9623ZM156.432 40H151.819V42H156.432V40ZM152.77 40.6912L147.669 24.981L145.767 25.5986L150.867 41.3088L152.77 40.6912ZM146.718 24.2898H146.559V26.2898H146.718V24.2898ZM145.608 24.9804L140.497 40.6906L142.399 41.3094L147.51 25.5991L145.608 24.9804ZM141.159 33.9957H152.057V31.9957H141.159V33.9957ZM151.057 32.9957V36.3565H153.057V32.9957H151.057ZM152.057 35.3565H141.159V37.3565H152.057V35.3565ZM142.159 36.3565V32.9957H140.159V36.3565H142.159ZM171.429 27.2188L170.468 27.4952L170.676 28.2188H171.429V27.2188ZM170.842 25.9361L170.01 26.4908L170.015 26.4976L170.842 25.9361ZM169.918 24.9815L169.322 25.7851L169.331 25.7913L169.339 25.7973L169.918 24.9815ZM168.685 24.375L168.393 25.3317L168.397 25.3328L168.685 24.375ZM164.419 24.9418L163.871 24.1054L163.868 24.1075L164.419 24.9418ZM162.589 27.1989L163.503 27.6061L163.504 27.6039L162.589 27.1989ZM164.409 36.6946L163.856 37.5277L163.861 37.531L164.409 36.6946ZM169.699 36.9531L170.146 37.8476L170.149 37.8458L169.699 36.9531ZM171.29 35.4716L170.426 34.9677L170.422 34.9745L171.29 35.4716ZM171.847 33.2145L171.993 32.2252L170.847 32.0559V33.2145H171.847ZM172.722 33.3438V34.3438L172.868 32.3545L172.722 33.3438ZM167.472 33.3438H166.472V34.3438H167.472V33.3438ZM167.472 30.1023V29.1023H166.472V30.1023H167.472ZM175.993 30.1023H176.993V29.1023H175.993V30.1023ZM174.859 37.2812L175.72 37.7898L175.722 37.7879L174.859 37.2812ZM171.737 40.2443L172.199 41.1315L172.202 41.1297L171.737 40.2443ZM162.152 40.0156L161.646 40.878L161.649 40.8797L162.152 40.0156ZM158.771 36.4062L157.881 36.8625L157.884 36.867L158.771 36.4062ZM158.284 26.4233L157.347 26.0743L157.346 26.0769L158.284 26.4233ZM160.312 23.1222L161.033 23.8159L161.033 23.8159L160.312 23.1222ZM163.345 21.0639L162.967 20.138L162.967 20.138L163.345 21.0639ZM170.315 20.8651L169.993 21.8118L169.999 21.8137L170.315 20.8651ZM172.96 22.277L172.339 23.0605L172.342 23.0631L172.96 22.277ZM174.859 24.4545L173.995 24.958L173.997 24.961L174.859 24.4545ZM175.804 27.2188V28.2188H176.952L176.795 27.0819L175.804 27.2188ZM172.39 26.9423C172.225 26.3692 171.988 25.8431 171.67 25.3746L170.015 26.4976C170.201 26.7715 170.354 27.1005 170.468 27.4952L172.39 26.9423ZM171.674 25.3814C171.356 24.9034 170.962 24.4962 170.496 24.1658L169.339 25.7973C169.602 25.9839 169.825 26.2131 170.01 26.4908L171.674 25.3814ZM170.513 24.178C170.054 23.8382 169.537 23.5867 168.972 23.4172L168.397 25.3328C168.76 25.4417 169.065 25.5946 169.322 25.7851L170.513 24.178ZM168.976 23.4183C168.41 23.2461 167.803 23.1662 167.163 23.1662V25.1662C167.637 25.1662 168.045 25.2255 168.393 25.3317L168.976 23.4183ZM167.163 23.1662C165.949 23.1662 164.839 23.4707 163.871 24.1054L164.967 25.7781C165.577 25.3788 166.296 25.1662 167.163 25.1662V23.1662ZM163.868 24.1075C162.903 24.7453 162.178 25.6586 161.675 26.7939L163.504 27.6039C163.876 26.7638 164.371 26.1723 164.97 25.776L163.868 24.1075ZM161.676 26.7916C161.166 27.9349 160.933 29.2822 160.933 30.7983H162.933C162.933 29.4772 163.138 28.425 163.503 27.6061L161.676 26.7916ZM160.933 30.7983C160.933 32.3133 161.163 33.6631 161.662 34.8152L163.497 34.02C163.135 33.1835 162.933 32.1204 162.933 30.7983H160.933ZM161.662 34.8152C162.158 35.9606 162.884 36.8823 163.856 37.5277L164.962 35.8615C164.357 35.4595 163.863 34.8633 163.497 34.02L161.662 34.8152ZM163.861 37.531C164.834 38.169 165.962 38.4702 167.203 38.4702V36.4702C166.296 36.4702 165.561 36.2543 164.957 35.8583L163.861 37.531ZM167.203 38.4702C168.293 38.4702 169.286 38.2776 170.146 37.8476L169.252 36.0587C168.733 36.3181 168.062 36.4702 167.203 36.4702V38.4702ZM170.149 37.8458C171.009 37.4122 171.689 36.7858 172.157 35.9687L170.422 34.9745C170.161 35.4301 169.781 35.7914 169.248 36.0604L170.149 37.8458ZM172.154 35.9755C172.629 35.1608 172.847 34.228 172.847 33.2145H170.847C170.847 33.9377 170.693 34.5097 170.426 34.9677L172.154 35.9755ZM171.7 34.2038L172.575 34.333L172.868 32.3545L171.993 32.2252L171.7 34.2038ZM172.722 32.3438H167.472V34.3438H172.722V32.3438ZM168.472 33.3438V30.1023H166.472V33.3438H168.472ZM167.472 31.1023H175.993V29.1023H167.472V31.1023ZM174.993 30.1023V32.6676H176.993V30.1023H174.993ZM174.993 32.6676C174.993 34.315 174.646 35.6703 173.997 36.7746L175.722 37.7879C176.584 36.3202 176.993 34.5998 176.993 32.6676H174.993ZM173.998 36.7727C173.338 37.8908 172.435 38.7486 171.272 39.3589L172.202 41.1297C173.691 40.348 174.869 39.2305 175.72 37.7898L173.998 36.7727ZM171.276 39.3571C170.112 39.9623 168.756 40.2784 167.183 40.2784V42.2784C169.031 42.2784 170.711 41.9051 172.199 41.1315L171.276 39.3571ZM167.183 40.2784C165.426 40.2784 163.927 39.8924 162.655 39.1516L161.649 40.8797C163.267 41.8226 165.123 42.2784 167.183 42.2784V40.2784ZM162.658 39.1533C161.383 38.4047 160.385 37.3445 159.659 35.9455L157.884 36.867C158.775 38.5835 160.03 39.9295 161.646 40.878L162.658 39.1533ZM159.661 35.95C158.946 34.5547 158.568 32.8618 158.568 30.8381H156.568C156.568 33.1098 156.993 35.129 157.881 36.8625L159.661 35.95ZM158.568 30.8381C158.568 29.2829 158.793 27.9319 159.222 26.7697L157.346 26.0769C156.821 27.4999 156.568 29.0921 156.568 30.8381H158.568ZM159.221 26.7723C159.662 25.5877 160.269 24.6085 161.033 23.8159L159.592 22.4284C158.619 23.4389 157.874 24.6604 157.347 26.0743L159.221 26.7723ZM161.033 23.8159C161.805 23.0143 162.699 22.4075 163.723 21.9898L162.967 20.138C161.684 20.6616 160.557 21.427 159.592 22.4284L161.033 23.8159ZM163.723 21.9898C164.747 21.5719 165.867 21.358 167.094 21.358V19.358C165.629 19.358 164.25 19.6146 162.967 20.138L163.723 21.9898ZM167.094 21.358C168.148 21.358 169.112 21.5123 169.993 21.8118L170.637 19.9183C169.53 19.5417 168.346 19.358 167.094 19.358V21.358ZM169.999 21.8137C170.89 22.1108 171.667 22.5279 172.339 23.0605L173.582 21.4935C172.715 20.8064 171.729 20.2822 170.632 19.9164L169.999 21.8137ZM172.342 23.0631C173.02 23.596 173.569 24.2264 173.995 24.958L175.723 23.9511C175.169 22.999 174.452 22.1776 173.578 21.4909L172.342 23.0631ZM173.997 24.961C174.418 25.677 174.691 26.4718 174.813 27.3556L176.795 27.0819C176.638 25.9505 176.282 24.9025 175.722 23.9481L173.997 24.961ZM175.804 26.2188H171.429V28.2188H175.804V26.2188ZM179.227 41H178.227V42H179.227V41ZM179.227 20.6364V19.6364H178.227V20.6364H179.227ZM192.949 20.6364H193.949V19.6364H192.949V20.6364ZM192.949 24.1861V25.1861H193.949V24.1861H192.949ZM183.532 24.1861V23.1861H182.532V24.1861H183.532ZM183.532 29.0384H182.532V30.0384H183.532V29.0384ZM192.243 29.0384H193.243V28.0384H192.243V29.0384ZM192.243 32.5881V33.5881H193.243V32.5881H192.243ZM183.532 32.5881V31.5881H182.532V32.5881H183.532ZM183.532 37.4503H182.532V38.4503H183.532V37.4503ZM192.988 37.4503H193.988V36.4503H192.988V37.4503ZM192.988 41V42H193.988V41H192.988ZM180.227 41V20.6364H178.227V41H180.227ZM179.227 21.6364H192.949V19.6364H179.227V21.6364ZM191.949 20.6364V24.1861H193.949V20.6364H191.949ZM192.949 23.1861H183.532V25.1861H192.949V23.1861ZM182.532 24.1861V29.0384H184.532V24.1861H182.532ZM183.532 30.0384H192.243V28.0384H183.532V30.0384ZM191.243 29.0384V32.5881H193.243V29.0384H191.243ZM192.243 31.5881H183.532V33.5881H192.243V31.5881ZM182.532 32.5881V37.4503H184.532V32.5881H182.532ZM183.532 38.4503H192.988V36.4503H183.532V38.4503ZM191.988 37.4503V41H193.988V37.4503H191.988ZM192.988 40H179.227V42H192.988V40Z" fill="#A2A5FF" mask="url(#path-2-outside-1_135_96)"/>
<rect x="15" y="9" width="41" height="41" rx="20.5" fill="#EADDFF"/>
<path fill-rule="evenodd" clip-rule="evenodd" d="M41.6502 25.4C41.6502 28.7966 38.8968 31.55 35.5002 31.55C32.1037 31.55 29.3503 28.7966 29.3503 25.4C29.3503 22.0034 32.1037 19.25 35.5002 19.25C38.8968 19.25 41.6502 22.0034 41.6502 25.4ZM39.6002 25.4C39.6002 27.6644 37.7646 29.5 35.5002 29.5C33.2359 29.5 31.4003 27.6644 31.4003 25.4C31.4003 23.1356 33.2359 21.3 35.5002 21.3C37.7646 21.3 39.6002 23.1356 39.6002 25.4Z" fill="#4F378A"/>
<path d="M35.5003 34.625C28.864 34.625 23.2098 38.5491 21.0559 44.0468C21.5806 44.5679 22.1333 45.0607 22.7116 45.5229C24.3155 40.4754 29.3469 36.675 35.5003 36.675C41.6536 36.675 46.685 40.4754 48.2889 45.5229C48.8672 45.0607 49.4199 44.5679 49.9446 44.0469C47.7908 38.5491 42.1365 34.625 35.5003 34.625Z" fill="#4F378A"/>
</svg>
